<svg width="24" height="24" viewBox="0 0 24 24" fill="none" xmlns="http://www.w3.org/2000/svg">
<path d="M21.3335 2.66666H2.66683C2.31321 2.66666 1.97407 2.80713 1.72402 3.05718C1.47397 3.30723 1.3335 3.64637 1.3335 3.99999V20C1.3335 20.3536 1.47397 20.6928 1.72402 20.9428C1.97407 21.1928 2.31321 21.3333 2.66683 21.3333H21.3335C21.6871 21.3333 22.0263 21.1928 22.2763 20.9428C22.5264 20.6928 22.6668 20.3536 22.6668 20V3.99999C22.6668 3.64637 22.5264 3.30723 22.2763 3.05718C22.0263 2.80713 21.6871 2.66666 21.3335 2.66666ZM2.66683 20V3.99999H21.3335V20H2.66683Z" fill="#DE171E"/>
<path d="M5.94678 9.33334C6.34234 9.33334 6.72902 9.21605 7.05792 8.99628C7.38682 8.77652 7.64316 8.46416 7.79454 8.09871C7.94591 7.73326 7.98552 7.33113 7.90835 6.94316C7.83118 6.5552 7.6407 6.19884 7.36099 5.91913C7.08129 5.63943 6.72492 5.44894 6.33696 5.37177C5.949 5.2946 5.54686 5.33421 5.18141 5.48559C4.81596 5.63696 4.5036 5.89331 4.28384 6.2222C4.06408 6.5511 3.94678 6.93778 3.94678 7.33334C3.94678 7.86378 4.15749 8.37249 4.53256 8.74756C4.90764 9.12263 5.41634 9.33334 5.94678 9.33334ZM5.94678 6.26668C6.15802 6.26536 6.3649 6.32679 6.54119 6.44319C6.71748 6.5596 6.85523 6.72572 6.93699 6.92051C7.01875 7.1153 7.04082 7.32997 7.00042 7.53732C6.96002 7.74467 6.85896 7.93536 6.71005 8.0852C6.56114 8.23505 6.3711 8.3373 6.164 8.379C5.95691 8.4207 5.7421 8.39997 5.5468 8.31944C5.35151 8.2389 5.18452 8.10219 5.06702 7.92664C4.94951 7.75109 4.88678 7.54459 4.88678 7.33334C4.88853 7.05275 5.00077 6.78415 5.19918 6.58574C5.39759 6.38733 5.66619 6.27509 5.94678 6.27334V6.26668Z" fill="#DE171E"/>
<path d="M15.1868 10.2467L11.5868 13.8467L8.92011 11.18C8.7952 11.0558 8.62623 10.9861 8.45011 10.9861C8.27399 10.9861 8.10502 11.0558 7.98011 11.18L3.94678 15.2667V17.1533L8.47344 12.6267L10.6668 14.7867L8.16678 17.2867H10.0001L15.6334 11.6533L20.0001 16V14.12L16.1268 10.2467C16.0019 10.1225 15.8329 10.0528 15.6568 10.0528C15.4807 10.0528 15.3117 10.1225 15.1868 10.2467Z" fill="#DE171E"/>
</svg>
