<svg width="20" height="20" viewBox="0 0 20 20" fill="none" xmlns="http://www.w3.org/2000/svg">
<path d="M15.66 7.52999L8.59 14.6L4.35 10.36L5.76 8.94999L8.59 11.78L14.25 6.11999L15.66 7.52999ZM2 9.99999C2 7.66999 3.02 5.57999 4.62 4.11999L7 6.49999V0.499988H1L3.2 2.69999C1.24 4.51999 0 7.10999 0 9.99999C0 15.19 3.95 19.45 9 19.95V17.93C5.06 17.44 2 14.07 2 9.99999ZM20 9.99999C20 4.80999 16.05 0.549988 11 0.0499878V2.06999C14.94 2.55999 18 5.92999 18 9.99999C18 12.33 16.98 14.42 15.38 15.88L13 13.5V19.5H19L16.8 17.3C18.76 15.48 20 12.89 20 9.99999Z" fill="#DE171E"/>
</svg>
