<svg width="22" height="18" viewBox="0 0 22 18" fill="none" xmlns="http://www.w3.org/2000/svg">
<path d="M20.375 4.08516L17.375 5.8125V2.25C17.375 1.42266 16.7023 0.75 15.875 0.75H2C1.17266 0.75 0.5 1.42266 0.5 2.25V15.75C0.5 16.5773 1.17266 17.25 2 17.25H15.875C16.7023 17.25 17.375 16.5773 17.375 15.75V12.1875L20.375 13.9148C20.8742 14.2031 21.5 13.8422 21.5 13.268V4.73438C21.5 4.15781 20.8742 3.79687 20.375 4.08516ZM15.6875 15.5625H2.1875V2.4375H15.6875V15.5625ZM19.8125 11.6484L17.375 10.2469V7.75547L19.8125 6.35156V11.6484ZM3.875 5.4375H6.5C6.60313 5.4375 6.6875 5.35313 6.6875 5.25V4.125C6.6875 4.02187 6.60313 3.9375 6.5 3.9375H3.875C3.77187 3.9375 3.6875 4.02187 3.6875 4.125V5.25C3.6875 5.35313 3.77187 5.4375 3.875 5.4375Z" fill="#DE171E"/>
</svg>
