<svg width="17" height="19" viewBox="0 0 17 19" fill="none" xmlns="http://www.w3.org/2000/svg">
<path d="M11.5381 5.64261L6.07724 11.2967C5.98502 11.3889 5.91147 11.4991 5.86087 11.6211C5.81026 11.743 5.78363 11.8742 5.78252 12.0069C5.7814 12.1396 5.80583 12.2712 5.85438 12.394C5.90292 12.5169 5.97462 12.6285 6.06527 12.7223C6.15592 12.8162 6.26372 12.8904 6.38238 12.9406C6.50104 12.9909 6.62818 13.0162 6.75637 13.015C6.88457 13.0139 7.01127 12.9863 7.12906 12.9339C7.24686 12.8815 7.3534 12.8054 7.44246 12.7099L12.9043 7.05688C13.4476 6.49451 13.7528 5.73178 13.7528 4.93648C13.7528 4.14118 13.4476 3.37845 12.9043 2.81609C12.3611 2.25373 11.6243 1.93779 10.856 1.93779C10.0877 1.93779 9.35093 2.25373 8.80769 2.81609L3.34582 8.47014C2.88824 8.93203 2.52382 9.48337 2.27368 10.0922C2.02355 10.701 1.89268 11.3552 1.88868 12.0168C1.88467 12.6783 2.00761 13.3342 2.25036 13.9462C2.4931 14.5582 2.85083 15.1142 3.30277 15.582C3.75472 16.0498 4.2919 16.42 4.88315 16.6712C5.4744 16.9224 6.10795 17.0496 6.74704 17.0454C7.38614 17.0411 8.01806 16.9056 8.60615 16.6465C9.19424 16.3875 9.72679 16.0102 10.1729 15.5365L15.6348 9.8834L17 11.2967L11.5381 16.9507C10.9105 17.6004 10.1654 18.1158 9.3454 18.4674C8.52537 18.819 7.64647 19 6.75888 19C5.87129 19 4.9924 18.819 4.17237 18.4674C3.35234 18.1158 2.60725 17.6004 1.97963 16.9507C1.35201 16.301 0.854155 15.5297 0.514489 14.6808C0.174824 13.8319 -6.61305e-09 12.9221 0 12.0033C6.61306e-09 11.0845 0.174824 10.1747 0.514489 9.32577C0.854155 8.47689 1.35201 7.70558 1.97963 7.05588L7.44246 1.40283C8.35294 0.492512 9.57239 -0.0111972 10.8382 0.000188914C12.1039 0.0115751 13.3147 0.537146 14.2098 1.4637C15.1048 2.39026 15.6125 3.64367 15.6235 4.95397C15.6345 6.26427 15.148 7.52662 14.2686 8.46914L8.80769 14.1252C8.53863 14.4036 8.21923 14.6245 7.86772 14.7752C7.51621 14.9259 7.13948 15.0034 6.75902 15.0033C6.37857 15.0033 6.00185 14.9257 5.65038 14.7749C5.2989 14.6242 4.97955 14.4032 4.71056 14.1247C4.44157 13.8462 4.22821 13.5155 4.08266 13.1517C3.93711 12.7878 3.86222 12.3978 3.86226 12.0039C3.86231 11.6101 3.93729 11.2201 4.08292 10.8563C4.22856 10.4924 4.44199 10.1619 4.71105 9.8834L10.1729 4.22935L11.5381 5.64261Z" fill="#196698"/>
</svg>
