<svg width="19" height="18" viewBox="0 0 19 18" fill="none" xmlns="http://www.w3.org/2000/svg">
<path d="M11.2452 0C9.9497 0 8.93913 0.0117188 8.21343 0.0351562C7.48774 0.0585938 6.92997 0.108398 6.54014 0.18457C6.1503 0.260742 5.9044 0.325195 5.80245 0.37793C5.70049 0.430664 5.53556 0.533203 5.30765 0.685547C5.12773 0.826172 4.80087 0.94043 4.32707 1.02832C3.85327 1.11621 3.0646 1.19531 1.96106 1.26562C1.76914 1.27734 1.61921 1.34766 1.51125 1.47656C1.48726 1.51172 1.43928 1.58789 1.36731 1.70508C1.29534 1.82227 1.19339 2.01855 1.06144 2.29395C0.929498 2.56934 0.806549 2.87109 0.692597 3.19922C0.578645 3.52734 0.479687 3.9375 0.395722 4.42969C0.311758 4.92188 0.269775 5.41992 0.269775 5.92383C0.269775 7.63477 0.563652 8.94727 1.1514 9.86133C1.27135 10.0371 1.43928 10.125 1.65519 10.125C2.66277 10.125 3.7693 10.7227 4.97479 11.918C6.18029 13.1133 7.22085 14.7363 8.09648 16.7871C8.12047 16.8223 8.15945 16.9043 8.21343 17.0332C8.26741 17.1621 8.3004 17.2441 8.31239 17.2793C8.32438 17.3145 8.35737 17.3818 8.41135 17.4814C8.46533 17.5811 8.5133 17.6455 8.55529 17.6748C8.59727 17.7041 8.65425 17.748 8.72622 17.8066C8.79819 17.8652 8.87315 17.9033 8.95112 17.9209C9.02909 17.9385 9.12505 17.9561 9.239 17.9736C9.35295 17.9912 9.4819 18 9.62584 18C9.84175 18 10.0637 17.9531 10.2916 17.8594C10.5195 17.7656 10.7294 17.6396 10.9213 17.4814C11.1132 17.3232 11.2691 17.1445 11.3891 16.9453C11.617 16.582 11.7489 16.0605 11.7849 15.3809C11.8209 14.7012 11.7999 14.0684 11.722 13.4824C11.644 12.8965 11.539 12.334 11.4071 11.7949C13.5422 11.8066 14.9936 11.8125 15.7613 11.8125C16.469 11.8125 17.0417 11.625 17.4795 11.25C17.9173 10.875 18.1423 10.3828 18.1542 9.77344C18.1662 9.25781 18.1123 8.86523 17.9923 8.5957C18.1962 8.39648 18.3672 8.18848 18.5051 7.97168C18.643 7.75488 18.718 7.51172 18.73 7.24219C18.742 6.69141 18.4661 6.12891 17.9024 5.55469C17.9143 5.53125 17.9383 5.47559 17.9743 5.3877C18.0103 5.2998 18.0373 5.22656 18.0553 5.16797C18.0733 5.10938 18.0883 5.03613 18.1003 4.94824C18.1123 4.86035 18.1183 4.77539 18.1183 4.69336C18.0943 4.04883 17.7104 3.47461 16.9667 2.9707C17.0267 2.58398 17.0207 2.23828 16.9488 1.93359C16.6609 0.644531 14.7597 0 11.2452 0ZM2.26693 2.4082C4.23411 2.25586 5.48158 1.98633 6.00936 1.59961C6.20128 1.45898 6.36921 1.36523 6.51315 1.31836C6.65709 1.27148 7.0889 1.22754 7.8086 1.18652C8.5283 1.14551 9.67382 1.125 11.2452 1.125C11.7369 1.125 12.1838 1.13672 12.5856 1.16016C12.9874 1.18359 13.4522 1.22461 13.98 1.2832C14.5078 1.3418 14.9336 1.44727 15.2575 1.59961C15.5813 1.75195 15.7732 1.94531 15.8332 2.17969C15.8812 2.42578 15.7673 2.68945 15.4914 2.9707C15.4314 3.11133 15.4314 3.25488 15.4914 3.40137C15.5513 3.54785 15.6473 3.65039 15.7792 3.70898H15.7972C15.8572 3.73242 15.9292 3.76172 16.0131 3.79688C16.0971 3.83203 16.2201 3.89648 16.382 3.99023C16.5439 4.08398 16.6789 4.19824 16.7868 4.33301C16.8948 4.46777 16.9548 4.59961 16.9667 4.72852C16.9667 4.77539 16.9637 4.81934 16.9578 4.86035C16.9518 4.90137 16.9458 4.93945 16.9398 4.97461C16.9338 5.00977 16.9218 5.04492 16.9038 5.08008L16.8588 5.16797L16.8138 5.23828L16.7688 5.2998L16.7328 5.34375L16.7059 5.37891L16.6969 5.39648C16.6489 5.45508 16.6189 5.51953 16.6069 5.58984C16.5949 5.66016 16.5949 5.73047 16.6069 5.80078C16.6189 5.87109 16.6459 5.93848 16.6879 6.00293C16.7298 6.06738 16.7808 6.12305 16.8408 6.16992C16.9128 6.20508 16.9907 6.25488 17.0747 6.31934C17.1587 6.38379 17.2636 6.50391 17.3896 6.67969C17.5155 6.85547 17.5785 7.03125 17.5785 7.20703C17.5665 7.5 17.3386 7.77539 16.8948 8.0332C16.8228 8.08008 16.7628 8.13574 16.7149 8.2002C16.6669 8.26465 16.6309 8.33789 16.6069 8.41992C16.5949 8.4668 16.5919 8.5166 16.5979 8.56934C16.6039 8.62207 16.6159 8.6748 16.6339 8.72754C16.6519 8.78027 16.6789 8.83008 16.7149 8.87695C16.7268 8.88867 16.7388 8.90332 16.7508 8.9209C16.7628 8.93848 16.7868 8.98242 16.8228 9.05273C16.8588 9.12305 16.8888 9.19043 16.9128 9.25488C16.9368 9.31934 16.9578 9.39844 16.9757 9.49219C16.9937 9.58594 17.0027 9.67383 17.0027 9.75586C16.9907 9.9668 16.9338 10.1426 16.8318 10.2832C16.7298 10.4238 16.5979 10.5205 16.436 10.5732C16.274 10.626 16.1451 10.6582 16.0491 10.6699C15.9532 10.6816 15.8572 10.6875 15.7613 10.6875H11.551L10.5794 10.6699C10.5315 10.6699 10.4835 10.6758 10.4355 10.6875C10.3875 10.6992 10.3425 10.7168 10.3006 10.7402C10.2586 10.7637 10.2196 10.79 10.1836 10.8193C10.1476 10.8486 10.1176 10.8867 10.0936 10.9336C9.98569 11.0859 9.96769 11.2617 10.0397 11.4609C10.2316 12 10.3845 12.5918 10.4985 13.2363C10.6124 13.8809 10.6664 14.4961 10.6604 15.082C10.6544 15.668 10.5674 16.0957 10.3995 16.3652C10.3875 16.3887 10.3635 16.4297 10.3275 16.4883C10.2916 16.5469 10.2676 16.5879 10.2556 16.6113C10.2436 16.6348 10.2166 16.667 10.1746 16.708C10.1326 16.749 10.0906 16.7783 10.0487 16.7959C10.0067 16.8135 9.9497 16.8311 9.87773 16.8486C9.80576 16.8662 9.7218 16.875 9.62584 16.875C9.58985 16.875 9.55387 16.8633 9.51788 16.8398C9.4819 16.8164 9.42792 16.7637 9.35595 16.6816C9.28398 16.5996 9.21801 16.4883 9.15803 16.3477C8.23442 14.168 7.11889 12.4307 5.81144 11.1357C4.50399 9.84082 3.23853 9.13477 2.01504 9.01758C1.91908 8.80664 1.83512 8.5957 1.76315 8.38477C1.69118 8.17383 1.61621 7.83984 1.53824 7.38281C1.46027 6.92578 1.42129 6.43945 1.42129 5.92383C1.42129 5.39648 1.47527 4.87207 1.58322 4.35059C1.69118 3.8291 1.80213 3.41895 1.91608 3.12012C2.03003 2.82129 2.14699 2.58398 2.26693 2.4082Z" fill="#8A8D93"/>
</svg>
