<svg width="19" height="18" viewBox="0 0 19 18" fill="none" xmlns="http://www.w3.org/2000/svg">
<path d="M11.2452 18C9.9497 18 8.93913 17.9883 8.21343 17.9648C7.48774 17.9414 6.92997 17.8916 6.54014 17.8154C6.1503 17.7393 5.9044 17.6748 5.80245 17.6221C5.70049 17.5693 5.53556 17.4668 5.30765 17.3145C5.12773 17.1738 4.80087 17.0596 4.32707 16.9717C3.85327 16.8838 3.0646 16.8047 1.96106 16.7344C1.76914 16.7227 1.61921 16.6523 1.51125 16.5234C1.48726 16.4883 1.43928 16.4121 1.36731 16.2949C1.29534 16.1777 1.19339 15.9814 1.06144 15.7061C0.929498 15.4307 0.806549 15.1289 0.692597 14.8008C0.578645 14.4727 0.479687 14.0625 0.395722 13.5703C0.311758 13.0781 0.269775 12.5801 0.269775 12.0762C0.269775 10.3652 0.563652 9.05273 1.1514 8.13867C1.27135 7.96289 1.43928 7.875 1.65519 7.875C2.66277 7.875 3.7693 7.27734 4.97479 6.08203C6.18029 4.88672 7.22085 3.26367 8.09648 1.21289C8.12047 1.17773 8.15945 1.0957 8.21343 0.966797C8.26741 0.837891 8.3004 0.755859 8.31239 0.720703C8.32438 0.685547 8.35737 0.618164 8.41135 0.518555C8.46533 0.418945 8.5133 0.354492 8.55529 0.325195C8.59727 0.295898 8.65425 0.251953 8.72622 0.193359C8.79819 0.134766 8.87315 0.0966797 8.95112 0.0791016C9.02909 0.0615234 9.12505 0.0439453 9.239 0.0263672C9.35295 0.00878906 9.4819 0 9.62584 0C9.84175 0 10.0637 0.046875 10.2916 0.140625C10.5195 0.234375 10.7294 0.360352 10.9213 0.518555C11.1132 0.676758 11.2691 0.855469 11.3891 1.05469C11.617 1.41797 11.7489 1.93945 11.7849 2.61914C11.8209 3.29883 11.7999 3.93164 11.722 4.51758C11.644 5.10352 11.539 5.66602 11.4071 6.20508C13.5422 6.19336 14.9936 6.1875 15.7613 6.1875C16.469 6.1875 17.0417 6.375 17.4795 6.75C17.9173 7.125 18.1423 7.61719 18.1542 8.22656C18.1662 8.74219 18.1123 9.13477 17.9923 9.4043C18.1962 9.60352 18.3672 9.81152 18.5051 10.0283C18.643 10.2451 18.718 10.4883 18.73 10.7578C18.742 11.3086 18.4661 11.8711 17.9024 12.4453C17.9143 12.4688 17.9383 12.5244 17.9743 12.6123C18.0103 12.7002 18.0373 12.7734 18.0553 12.832C18.0733 12.8906 18.0883 12.9639 18.1003 13.0518C18.1123 13.1396 18.1183 13.2246 18.1183 13.3066C18.0943 13.9512 17.7104 14.5254 16.9667 15.0293C17.0267 15.416 17.0207 15.7617 16.9488 16.0664C16.6609 17.3555 14.7597 18 11.2452 18ZM2.26693 15.5918C4.23411 15.7441 5.48158 16.0137 6.00936 16.4004C6.20128 16.541 6.36921 16.6348 6.51315 16.6816C6.65709 16.7285 7.0889 16.7725 7.8086 16.8135C8.5283 16.8545 9.67382 16.875 11.2452 16.875C11.7369 16.875 12.1838 16.8633 12.5856 16.8398C12.9874 16.8164 13.4522 16.7754 13.98 16.7168C14.5078 16.6582 14.9336 16.5527 15.2575 16.4004C15.5813 16.248 15.7732 16.0547 15.8332 15.8203C15.8812 15.5742 15.7673 15.3105 15.4914 15.0293C15.4314 14.8887 15.4314 14.7451 15.4914 14.5986C15.5513 14.4521 15.6473 14.3496 15.7792 14.291H15.7972C15.8572 14.2676 15.9292 14.2383 16.0131 14.2031C16.0971 14.168 16.2201 14.1035 16.382 14.0098C16.5439 13.916 16.6789 13.8018 16.7868 13.667C16.8948 13.5322 16.9548 13.4004 16.9667 13.2715C16.9667 13.2246 16.9637 13.1807 16.9578 13.1396C16.9518 13.0986 16.9458 13.0605 16.9398 13.0254C16.9338 12.9902 16.9218 12.9551 16.9038 12.9199L16.8588 12.832L16.8138 12.7617L16.7688 12.7002L16.7328 12.6562L16.7059 12.6211L16.6969 12.6035C16.6489 12.5449 16.6189 12.4805 16.6069 12.4102C16.5949 12.3398 16.5949 12.2695 16.6069 12.1992C16.6189 12.1289 16.6459 12.0615 16.6879 11.9971C16.7298 11.9326 16.7808 11.877 16.8408 11.8301C16.9128 11.7949 16.9907 11.7451 17.0747 11.6807C17.1587 11.6162 17.2636 11.4961 17.3896 11.3203C17.5155 11.1445 17.5785 10.9688 17.5785 10.793C17.5665 10.5 17.3386 10.2246 16.8948 9.9668C16.8228 9.91992 16.7628 9.86426 16.7149 9.7998C16.6669 9.73535 16.6309 9.66211 16.6069 9.58008C16.5949 9.5332 16.5919 9.4834 16.5979 9.43066C16.6039 9.37793 16.6159 9.3252 16.6339 9.27246C16.6519 9.21973 16.6789 9.16992 16.7149 9.12305C16.7268 9.11133 16.7388 9.09668 16.7508 9.0791C16.7628 9.06152 16.7868 9.01758 16.8228 8.94727C16.8588 8.87695 16.8888 8.80957 16.9128 8.74512C16.9368 8.68066 16.9578 8.60156 16.9757 8.50781C16.9937 8.41406 17.0027 8.32617 17.0027 8.24414C16.9907 8.0332 16.9338 7.85742 16.8318 7.7168C16.7298 7.57617 16.5979 7.47949 16.436 7.42676C16.274 7.37402 16.1451 7.3418 16.0491 7.33008C15.9532 7.31836 15.8572 7.3125 15.7613 7.3125H11.551L10.5794 7.33008C10.5315 7.33008 10.4835 7.32422 10.4355 7.3125C10.3875 7.30078 10.3425 7.2832 10.3006 7.25977C10.2586 7.23633 10.2196 7.20996 10.1836 7.18066C10.1476 7.15137 10.1176 7.11328 10.0936 7.06641C9.98569 6.91406 9.96769 6.73828 10.0397 6.53906C10.2316 6 10.3845 5.4082 10.4985 4.76367C10.6124 4.11914 10.6664 3.50391 10.6604 2.91797C10.6544 2.33203 10.5674 1.9043 10.3995 1.63477C10.3875 1.61133 10.3635 1.57031 10.3275 1.51172C10.2916 1.45312 10.2676 1.41211 10.2556 1.38867C10.2436 1.36523 10.2166 1.33301 10.1746 1.29199C10.1326 1.25098 10.0906 1.22168 10.0487 1.2041C10.0067 1.18652 9.9497 1.16895 9.87773 1.15137C9.80576 1.13379 9.7218 1.125 9.62584 1.125C9.58985 1.125 9.55387 1.13672 9.51788 1.16016C9.4819 1.18359 9.42792 1.23633 9.35595 1.31836C9.28398 1.40039 9.21801 1.51172 9.15803 1.65234C8.23442 3.83203 7.11889 5.56934 5.81144 6.86426C4.50399 8.15918 3.23853 8.86523 2.01504 8.98242C1.91908 9.19336 1.83512 9.4043 1.76315 9.61523C1.69118 9.82617 1.61621 10.1602 1.53824 10.6172C1.46027 11.0742 1.42129 11.5605 1.42129 12.0762C1.42129 12.6035 1.47527 13.1279 1.58322 13.6494C1.69118 14.1709 1.80213 14.5811 1.91608 14.8799C2.03003 15.1787 2.14699 15.416 2.26693 15.5918Z" fill="#8A8D93"/>
</svg>
