<svg width="34" height="34" viewBox="0 0 34 34" fill="none" xmlns="http://www.w3.org/2000/svg">
<path d="M26.2857 27H7.71429C7.52485 27 7.34316 27.0527 7.20921 27.1464C7.07526 27.2402 7 27.3674 7 27.5C7 27.6326 7.07526 27.7598 7.20921 27.8536C7.34316 27.9473 7.52485 28 7.71429 28H26.2857C26.4752 28 26.6568 27.9473 26.7908 27.8536C26.9247 27.7598 27 27.6326 27 27.5C27 27.3674 26.9247 27.2402 26.7908 27.1464C26.6568 27.0527 26.4752 27 26.2857 27Z" fill="white"/>
<path d="M17.0364 24L24.8235 16.0883C24.9438 15.9457 25.0066 15.7622 24.9995 15.5745C24.9923 15.3868 24.9157 15.2088 24.785 15.076C24.6543 14.9432 24.4791 14.8654 24.2944 14.8581C24.1097 14.8509 23.9291 14.9147 23.7887 15.0369L17.7703 21.144V5.74568C17.7703 5.54792 17.693 5.35825 17.5553 5.21841C17.4177 5.07856 17.231 5 17.0364 5C16.8417 5 16.655 5.07856 16.5174 5.21841C16.3797 5.35825 16.3024 5.54792 16.3024 5.74568V21.144L10.2914 15.0369C10.2256 14.9588 10.1446 14.8954 10.0536 14.8507C9.96253 14.8059 9.86335 14.7808 9.76227 14.7768C9.66119 14.7728 9.5604 14.7901 9.46622 14.8276C9.37203 14.8651 9.28649 14.922 9.21497 14.9946C9.14344 15.0673 9.08747 15.1542 9.05057 15.2499C9.01367 15.3456 8.99664 15.448 9.00055 15.5507C9.00445 15.6534 9.02921 15.7542 9.07326 15.8467C9.11731 15.9392 9.17972 16.0215 9.25655 16.0883L17.0364 24Z" fill="white"/>
</svg>
