<svg width="33" height="32" viewBox="0 0 33 32" fill="none" xmlns="http://www.w3.org/2000/svg">
<g clip-path="url(#clip0_1135:7488)">
<path d="M22.908 28.3883H6.97051C6.35077 28.3883 5.75642 28.1429 5.3182 27.7062C4.87998 27.2695 4.63379 26.6772 4.63379 26.0595V20.2011C4.63379 20.0835 4.68068 19.9707 4.76415 19.8875C4.84762 19.8043 4.96083 19.7576 5.07888 19.7576H20.0606C20.2129 19.7573 20.359 19.6967 20.4666 19.5893C20.5743 19.4818 20.6347 19.3361 20.6347 19.1843V11.8454C20.6344 11.6938 20.5739 11.5484 20.4662 11.4412C20.3586 11.3339 20.2128 11.2735 20.0606 11.2732H5.08222C4.96417 11.2732 4.85096 11.2265 4.76749 11.1433C4.68402 11.0601 4.63713 10.9473 4.63713 10.8297V2.32872C4.63713 1.71111 4.88332 1.11879 5.32154 0.682068C5.75975 0.245347 6.35411 0 6.97384 0L19.7568 0C19.8748 0 19.9881 0.0467328 20.0715 0.129918C20.155 0.213103 20.2019 0.325925 20.2019 0.443567V6.09904C20.2019 6.28609 20.2764 6.46548 20.4092 6.59774C20.5419 6.73001 20.7219 6.80431 20.9096 6.80431H26.5845C26.7025 6.80431 26.8157 6.85104 26.8992 6.93423C26.9827 7.01741 27.0295 7.13024 27.0295 7.24788V19.1255C27.0295 19.2431 26.9827 19.3559 26.8992 19.4391C26.8157 19.5223 26.7025 19.569 26.5845 19.569H23.727V25.616C23.727 25.7336 23.6801 25.8464 23.5966 25.9296C23.5132 26.0128 23.3999 26.0595 23.2819 26.0595H21.6406L23.2229 27.6364C23.2852 27.6985 23.3277 27.7775 23.3449 27.8636C23.3621 27.9497 23.3533 28.0389 23.3196 28.12C23.2858 28.2011 23.2287 28.2704 23.1555 28.3192C23.0822 28.3679 22.9961 28.3939 22.908 28.3938V28.3883ZM5.5273 20.6447V26.0595C5.5273 26.4419 5.67971 26.8085 5.95099 27.0789C6.22227 27.3492 6.5902 27.5011 6.97384 27.5011H21.8331L20.2508 25.9242C20.1885 25.8622 20.1461 25.7831 20.1289 25.6971C20.1117 25.611 20.1205 25.5217 20.1542 25.4406C20.1879 25.3595 20.245 25.2902 20.3183 25.2415C20.3915 25.1928 20.4777 25.1668 20.5657 25.1669H22.8368V19.1255C22.8368 19.0078 22.8837 18.895 22.9672 18.8118C23.0506 18.7286 23.1639 18.6819 23.2819 18.6819H26.1483V7.69477H20.9185C20.7077 7.69579 20.4987 7.65526 20.3037 7.5755C20.1086 7.49574 19.9313 7.37832 19.782 7.23001C19.6327 7.08171 19.5142 6.90543 19.4335 6.71133C19.3528 6.51723 19.3114 6.30914 19.3117 6.09904V0.887133H6.97051C6.58686 0.887133 6.21893 1.03901 5.94765 1.30937C5.67637 1.57972 5.52397 1.94639 5.52397 2.32872V10.3861H20.0606C20.4488 10.3864 20.8211 10.5402 21.0957 10.8139C21.3702 11.0875 21.5246 11.4585 21.5249 11.8454V19.1843C21.5246 19.5713 21.3703 19.9424 21.0958 20.2162C20.8212 20.49 20.4489 20.6441 20.0606 20.6447H5.5273Z" fill="#0A4469"/>
<path d="M20.0613 20.6447H1.46434C1.07596 20.6441 0.703675 20.49 0.429154 20.2162C0.154632 19.9424 0.000294227 19.5713 0 19.1842L0 11.8454C0.000294708 11.4585 0.154668 11.0875 0.429221 10.8139C0.703775 10.5402 1.07606 10.3864 1.46434 10.3861H20.0613C20.4495 10.3864 20.8218 10.5402 21.0964 10.8139C21.3709 11.0875 21.5253 11.4585 21.5256 11.8454V19.1842C21.5253 19.5713 21.371 19.9424 21.0965 20.2162C20.8219 20.49 20.4496 20.6441 20.0613 20.6447ZM1.46434 11.2732C1.31215 11.2735 1.16628 11.3339 1.05867 11.4412C0.951058 11.5484 0.890472 11.6938 0.890178 11.8454V19.1842C0.890177 19.3361 0.950634 19.4818 1.05828 19.5892C1.16592 19.6967 1.31196 19.7573 1.46434 19.7576H20.0613C20.2136 19.7573 20.3597 19.6967 20.4673 19.5892C20.575 19.4818 20.6354 19.3361 20.6354 19.1842V11.8454C20.6351 11.6938 20.5745 11.5484 20.4669 11.4412C20.3593 11.3339 20.2135 11.2735 20.0613 11.2732H1.46434Z" fill="#0A4469"/>
<path d="M26.5942 7.69475H20.9104C20.7003 7.69461 20.4923 7.65321 20.2983 7.57292C20.1043 7.49264 19.928 7.37504 19.7797 7.22685C19.6313 7.07866 19.5136 6.90278 19.4335 6.70926C19.3533 6.51574 19.3122 6.30838 19.3125 6.09902V0.44355C19.3124 0.35577 19.3385 0.269943 19.3874 0.196935C19.4363 0.123926 19.5058 0.0670193 19.5872 0.033418C19.6686 -0.000183236 19.7581 -0.00896791 19.8445 0.00817611C19.9309 0.0253201 20.0102 0.0676219 20.0725 0.129726L26.8779 6.91186C26.9475 6.97028 26.9975 7.04859 27.0211 7.13621C27.0447 7.22383 27.0408 7.31655 27.0099 7.40188C26.9789 7.48721 26.9225 7.56103 26.8482 7.6134C26.7738 7.66577 26.6852 7.69416 26.5942 7.69475ZM20.2027 1.51476V6.09902C20.2027 6.28607 20.2772 6.46546 20.41 6.59772C20.5427 6.72999 20.7227 6.80429 20.9104 6.80429H25.5137L20.2027 1.51476Z" fill="#0A4469"/>
<path d="M26.5941 32.0001C26.5432 32.0006 26.4927 31.991 26.4456 31.972C26.3984 31.9529 26.3555 31.9248 26.3193 31.8892L20.295 25.8877C20.2401 25.8334 20.2026 25.7639 20.1873 25.6883C20.1721 25.6127 20.1797 25.5342 20.2093 25.4629C20.2389 25.3916 20.289 25.3307 20.3534 25.2879C20.4178 25.245 20.4935 25.2222 20.5709 25.2224H22.8976V19.1233C22.8976 19.0204 22.9387 18.9217 23.0117 18.8489C23.0847 18.7761 23.1838 18.7352 23.2871 18.7352H29.9022C30.0055 18.7352 30.1046 18.7761 30.1776 18.8489C30.2507 18.9217 30.2917 19.0204 30.2917 19.1233V25.2224H32.6151C32.6927 25.2217 32.7688 25.2442 32.8335 25.2869C32.8983 25.3297 32.9487 25.3907 32.9784 25.4622C33.008 25.5338 33.0156 25.6125 33 25.6883C32.9844 25.7641 32.9465 25.8336 32.891 25.8877L26.8701 31.8892C26.8337 31.9249 26.7906 31.9531 26.7432 31.9721C26.6958 31.9911 26.6452 32.0006 26.5941 32.0001ZM21.5112 25.9986L26.5941 31.063L31.6748 25.9986H29.8978C29.7945 25.9986 29.6954 25.9577 29.6224 25.8849C29.5494 25.8122 29.5083 25.7134 29.5083 25.6105V19.517H23.6721V25.616C23.6721 25.719 23.6311 25.8177 23.558 25.8905C23.485 25.9633 23.3859 26.0042 23.2826 26.0042L21.5112 25.9986Z" fill="#0A4469"/>
<path d="M3.96029 18.357C3.84835 18.3494 3.74107 18.3095 3.65158 18.2421C3.5621 18.1746 3.49431 18.0826 3.45652 17.9773C3.41874 17.8721 3.41261 17.7581 3.43887 17.6494C3.46514 17.5407 3.52266 17.442 3.60439 17.3654C3.68612 17.2888 3.78851 17.2377 3.89899 17.2182C4.00946 17.1988 4.12324 17.2119 4.22635 17.2559C4.32946 17.3 4.41743 17.3731 4.47948 17.4662C4.54152 17.5594 4.57493 17.6686 4.57562 17.7804C4.56869 17.9374 4.50049 18.0856 4.38555 18.1933C4.27062 18.301 4.11803 18.3597 3.96029 18.357Z" fill="#0A4469"/>
<path d="M6.84006 16.5151V17.8691C6.83142 18.0005 6.77292 18.1238 6.67642 18.2139C6.57992 18.304 6.45264 18.3541 6.32042 18.3541C6.1882 18.3541 6.06093 18.304 5.96443 18.2139C5.86792 18.1238 5.80942 18.0005 5.80078 17.8691V13.6086C5.80911 13.4624 5.87412 13.3252 5.98208 13.2259C6.09005 13.1265 6.23251 13.0729 6.3794 13.0763H7.46986C8.86522 13.0763 9.36149 13.9047 9.36149 14.8062C9.36149 15.9018 8.6193 16.5151 7.46986 16.5151H6.84006ZM6.84006 15.5758H7.46986C8.02622 15.5758 8.32332 15.3319 8.32332 14.7996C8.32332 14.4148 8.16754 14.0156 7.46986 14.0156H6.84006V15.5758Z" fill="#0A4469"/>
<path d="M11.819 18.2905H10.98C10.8331 18.2939 10.6906 18.2403 10.5827 18.141C10.4747 18.0417 10.4097 17.9044 10.4014 17.7583V13.6009C10.4097 13.4547 10.4747 13.3175 10.5827 13.2182C10.6906 13.1189 10.8331 13.0652 10.98 13.0686H11.819C13.4958 13.0686 14.0756 13.9857 14.0756 15.0137V16.2856C14.0756 17.3291 13.5036 18.2905 11.819 18.2905ZM13.0363 15.0137C13.0363 14.4515 12.747 14.0079 11.9447 14.0079H11.4406V17.3513H11.9447C12.7614 17.3513 13.0363 16.87 13.0363 16.2856V15.0137Z" fill="#0A4469"/>
<path d="M16.2198 17.8835C16.2093 18.0135 16.1501 18.1349 16.0539 18.2234C15.9577 18.3118 15.8316 18.361 15.7007 18.361C15.5698 18.361 15.4437 18.3118 15.3475 18.2234C15.2513 18.1349 15.1921 18.0135 15.1816 17.8835V13.5942C15.191 13.4504 15.2555 13.3156 15.3617 13.2178C15.468 13.12 15.6078 13.0666 15.7525 13.0686H17.7643C17.8966 13.0658 18.0249 13.1145 18.1219 13.2043C18.2189 13.2942 18.277 13.4181 18.2839 13.5499C18.2839 13.816 18.0458 14.0078 17.7643 14.0078H16.2198V15.2066H17.623C17.7522 15.2032 17.8777 15.2498 17.9731 15.3366C18.0685 15.4235 18.1265 15.5438 18.1348 15.6723C18.1333 15.7372 18.1187 15.8011 18.0919 15.8602C18.0652 15.9194 18.0269 15.9726 17.9791 16.0167C17.9314 16.0609 17.8753 16.095 17.8142 16.1172C17.753 16.1394 17.688 16.1491 17.623 16.1458H16.2198V17.8835Z" fill="#0A4469"/>
</g>
<defs>
<clipPath id="clip0_1135:7488">
<rect width="33" height="32" fill="white"/>
</clipPath>
</defs>
</svg>
